<svg xmlns="http://www.w3.org/2000/svg" width="20" height="20" viewBox="0 0 20 20" fill="none"><path d="M17.8765 9.56522H19.9998C19.9998 4.11244 15.8881 0 10.4346 0V2.12584C14.7469 2.12584 17.8765 5.25401 17.8765 9.56522Z" fill="white"></path><path d="M10.7396 6.03992C12.9981 6.03992 13.9614 7.00317 13.9614 9.26149H16.1093C16.1093 5.7983 14.2031 3.89221 10.7396 3.89221V6.03992ZM14.4147 11.8849C14.2083 11.6974 13.9371 11.5974 13.6584 11.606C13.3797 11.6146 13.1152 11.7312 12.9208 11.9311L10.3509 14.5739C9.7323 14.4557 8.48868 14.0681 7.20855 12.7913C5.92842 11.5101 5.54073 10.2634 5.42582 9.64915L8.06662 7.07834C8.26682 6.88411 8.38358 6.61961 8.3922 6.34082C8.40082 6.06203 8.30062 5.79083 8.1128 5.58461L4.14462 1.22152C3.95672 1.01465 3.69558 0.889169 3.41665 0.871725C3.13772 0.854281 2.86298 0.946249 2.65077 1.1281L0.320335 3.12655C0.134664 3.31288 0.023843 3.56087 0.00889428 3.82348C-0.00721473 4.09194 -0.31436 10.4513 4.61715 15.3846C8.91933 19.6854 14.3083 20.0001 15.7925 20.0001C16.0094 20.0001 16.1426 19.9936 16.178 19.9915C16.4406 19.9768 16.6885 19.8655 16.874 19.679L18.8715 17.3476C19.0535 17.1356 19.1456 16.8609 19.1284 16.582C19.1111 16.3031 18.9858 16.0419 18.7791 15.8539L14.4147 11.8849Z" fill="white"></path></svg>