<svg xmlns="http://www.w3.org/2000/svg" width="102" height="102" viewBox="0 0 102 102" fill="none"><circle opacity="0.1" cx="51" cy="51" r="51" fill="#70738E"></circle><g clip-path="url(#clip0)"><path d="M52.5993 24.1613C51.0749 23.6781 49.5505 24.1613 48.5878 25.4499C48.1064 26.1748 47.946 26.9801 47.946 27.7855C47.8657 29.3962 47.3844 30.8459 46.5018 32.1345C46.3414 32.2956 46.2611 32.4566 46.0205 32.6983C46.5018 28.913 44.1752 26.0137 41.1265 25.4499C39.0405 25.0473 37.1952 25.611 35.6709 27.1412C34.1465 28.5909 33.6652 30.4432 33.9058 32.5372C33.7454 32.3761 33.5849 32.215 33.4245 31.9734C32.3815 30.5238 31.9803 28.913 31.9001 27.1412C31.9001 25.611 30.456 24.1613 28.8514 24.0003C27.0061 23.9197 25.3213 25.0473 25.0806 26.8191C24.9202 27.705 25.0004 28.6714 25.1609 29.6379C25.9631 34.7117 28.6107 38.4969 33.1036 40.913C33.4245 41.0741 33.5849 41.3157 33.5849 41.6379C33.5849 51.1412 33.5849 60.6446 33.5849 70.0674C33.5849 70.7922 33.8256 71.356 34.5477 71.5976C34.6279 71.5976 34.7081 71.5976 34.7884 71.5976C35.6709 71.2755 35.7511 71.0338 35.7511 70.0674C35.7511 64.6714 35.7511 59.356 35.7511 53.96C35.7511 53.7989 35.7511 53.6379 35.7511 53.4768C39.1207 53.4768 42.3299 53.4768 45.6193 53.4768C45.6193 53.6379 45.6193 53.7989 45.6193 53.96C45.6193 57.8258 45.6193 66.5238 45.6193 70.4701C45.6193 70.6312 45.6193 70.7922 45.6193 70.9533C45.6193 71.5976 46.1007 72.0003 46.6623 72.0003C47.2239 72.0003 47.7053 71.5976 47.7855 71.0338C47.7855 70.8728 47.7855 70.7117 47.7855 70.4701C47.7855 62.2553 47.7855 49.1278 47.7855 40.913C47.7855 40.5103 47.8657 40.2687 48.2669 40.0271C49.0692 39.4634 49.8715 38.8996 50.5133 38.1748C53.4015 35.2754 54.9259 31.7318 55.0061 27.6244C55.0061 26.0137 54.0434 24.6446 52.5993 24.1613ZM40.0033 27.6244C42.1695 27.6244 43.9345 29.3962 43.9345 31.6513C43.9345 33.7452 42.0892 35.5976 40.0033 35.5171C37.7568 35.5171 36.072 33.7452 36.072 31.4902C36.072 29.3962 37.8371 27.6244 40.0033 27.6244ZM46.8228 38.3358C46.6623 38.4164 46.5018 38.5775 46.2611 38.658C45.7798 38.8996 45.5391 39.3023 45.5391 39.866C45.5391 43.4902 45.5391 47.1144 45.5391 50.7385C45.5391 50.8996 45.5391 51.0607 45.5391 51.2218C42.2497 51.2218 38.9603 51.2218 35.6709 51.2218C35.6709 51.0607 35.6709 50.8996 35.6709 50.7385C35.6709 47.356 35.6709 43.8929 35.6709 40.5103C35.6709 39.7855 35.4302 39.4634 34.7884 39.2218C30.8571 37.3694 28.37 34.3895 27.4073 30.1211C27.2468 29.3157 27.1666 28.4298 27.1666 27.6244C27.0864 26.8191 27.648 26.1748 28.4503 26.1748C29.1723 26.1748 29.7339 26.7385 29.8142 27.5439C29.8944 28.5103 29.9746 29.4768 30.2153 30.4432C31.3385 34.5506 35.1093 37.4499 39.2812 37.7721C44.4961 38.0942 49.1494 34.3895 50.0319 29.1546C50.1121 28.6714 50.1121 28.1882 50.1121 27.705C50.1121 26.8191 50.6738 26.2553 51.476 26.2553C52.2783 26.2553 52.7597 26.8996 52.7597 27.7855C52.6795 32.215 50.5935 35.8392 46.8228 38.3358Z" fill="#54505B"></path><path d="M80.9196 41.9596C80.5986 39.7851 78.272 38.416 76.2663 39.2213C74.8221 39.7851 74.0198 40.9126 73.9396 42.5233C73.9396 44.2146 73.4582 45.7448 72.4955 47.1139C72.335 47.3556 72.1746 47.5166 72.0141 47.7582C72.4955 44.2146 70.0886 40.9126 66.719 40.5099C65.0342 40.2683 63.4296 40.7515 62.0657 41.879C60.3007 43.4092 59.5786 45.3421 59.8995 47.8388C58.9368 46.7113 58.2949 45.5032 58.0542 44.1341C57.974 43.3287 57.974 42.5233 57.8938 41.7985C57.5729 40.0267 55.9683 38.8186 54.2032 38.9797C52.5184 39.1408 51.0743 40.5905 50.9941 42.2012C50.9138 43.6509 51.1545 45.02 51.4754 46.4696C51.8766 48.2415 53.2405 52.1072 56.7706 54.4428C57.5729 55.0066 58.2949 55.4898 59.0972 55.973C59.3379 56.1341 59.4181 56.2952 59.4181 56.5368C59.4181 61.0468 59.4181 65.5569 59.4181 70.067C59.4181 70.8723 59.6588 71.3555 60.3809 71.5972C60.4611 71.5972 60.5413 71.5972 60.6216 71.5972C61.3436 71.3555 61.6645 70.8723 61.5843 70.067C61.5843 69.5837 61.5843 69.02 61.5843 68.5368C64.8737 68.5368 68.1631 68.5368 71.4525 68.5368C71.4525 69.02 71.4525 69.5837 71.4525 70.067C71.3723 70.7918 71.613 71.3555 72.4153 71.5972C72.4955 71.5972 72.5757 71.5972 72.656 71.5972C73.5385 71.275 73.6187 71.0334 73.6187 70.067C73.6187 65.3153 73.6187 60.5636 73.6187 55.8119C73.6187 55.4898 73.6989 55.3287 74.0198 55.0871C77.7104 52.5905 79.9568 49.1274 80.6789 44.6978C80.7591 44.1341 80.8393 43.4898 80.8393 42.926C80.8393 42.7649 80.8393 42.5233 80.8393 42.3623C80.9998 42.2817 80.9196 42.1207 80.9196 41.9596ZM65.9167 42.6844C68.0829 42.6844 69.8479 44.4562 69.9282 46.6307C69.9282 48.7247 68.1631 50.577 65.9969 50.577C63.8307 50.577 62.0657 48.8858 62.0657 46.6307C62.0657 44.4562 63.7505 42.6844 65.9167 42.6844ZM78.5929 44.7784C77.8709 48.6441 75.7849 51.624 72.4153 53.6374C71.8537 53.9596 71.613 54.4428 71.613 55.0871C71.613 58.6307 71.613 62.2549 71.613 65.7985C71.613 65.9596 71.613 66.1206 71.613 66.3623C68.3236 66.3623 65.0342 66.3623 61.7448 66.3623C61.7448 66.2012 61.7448 66.0401 61.7448 65.879C61.7448 62.4965 61.7448 59.1139 61.7448 55.7314C61.7448 55.0871 61.4239 54.6844 60.8623 54.4428C59.8995 53.9596 59.017 53.3958 58.1345 52.8321C55.0055 50.8992 53.8823 47.3556 53.5614 45.9864C53.5614 45.8253 53.4812 45.7448 53.4812 45.5837C53.4009 44.6173 53.2405 43.6509 53.1603 42.7649C53.08 41.9596 53.7219 41.3958 54.5241 41.3958C55.166 41.3958 55.6474 41.879 55.7276 42.6039C55.8078 43.3287 55.8078 44.0535 55.9683 44.7784C57.1717 50.8186 63.5098 54.6039 69.6072 52.1878C73.7792 50.4965 75.9453 47.275 76.1058 42.7649C76.1058 41.9596 76.6674 41.3153 77.4697 41.3153C78.1918 41.3153 78.7534 41.879 78.7534 42.7649C78.7534 43.4092 78.7534 44.0535 78.5929 44.7784Z" fill="#54505B"></path><path d="M41.7678 61.691C41.7678 60.8051 41.7678 59.9997 41.7678 59.1138C41.7678 58.55 41.4468 58.1474 41.0457 57.9863C40.2434 57.7447 39.6016 58.3084 39.6016 59.1943C39.6016 62.8185 39.6016 66.4427 39.6016 70.0668C39.6016 70.7111 39.762 71.2749 40.4039 71.5165C40.5643 71.5165 40.805 71.5165 40.9655 71.5165C41.6073 71.2749 41.7678 70.7917 41.7678 70.1474C41.7678 67.4091 41.7678 64.5098 41.7678 61.691Z" fill="#54505B"></path></g><circle cx="86" cy="86" r="16" fill="#70738E"></circle><path d="M80 86.7143L84.3333 91L93 81" stroke="white" stroke-width="2" stroke-linecap="round" stroke-linejoin="round"></path><defs><clipPath id="clip0"><rect width="56" height="48" fill="white" transform="translate(25 24)"></rect></clipPath></defs></svg>