<svg width="27" height="27" viewBox="0 0 27 27" fill="none" xmlns="http://www.w3.org/2000/svg">
<path d="M17.955 22.0896L20.25 14.8603L22.14 15.3958L19.845 22.6251L17.955 22.0896ZM20.655 4.5518C21.87 4.5518 22.95 3.48079 22.95 2.2759C22.95 1.07101 22.005 0 20.655 0C19.44 0 18.36 1.07101 18.36 2.2759C18.36 3.48079 19.44 4.5518 20.655 4.5518ZM26.055 24.0977C25.245 24.4994 24.435 24.901 23.49 25.0349C22.545 25.1688 21.6 25.1688 20.655 24.901L12.15 22.3574L15.39 13.2538L12.015 9.23747L15.93 7.09545C15.93 7.09545 17.415 10.9779 17.55 11.3795C17.685 11.7811 17.955 12.0489 18.36 12.1827L23.895 13.7893L24.57 11.3795L23.355 10.844L24.165 8.03258L22.275 7.49708L21.6 10.1746L19.98 9.50522L18.09 4.28404C17.55 3.21303 16.2 2.67753 14.985 3.21303L8.775 6.55994C7.56 7.22932 7.155 8.70197 7.83 9.77298C7.965 10.0407 11.88 14.057 11.88 14.057L9.585 21.688L0.405 19.0104L0 20.7508L20.115 26.6414C22.41 27.3108 24.84 27.043 27 25.8381L26.055 24.0977Z" fill="white"/>
</svg>
